<svg width="4036" height="4069" viewBox="0 0 4036 4069" fill="none" xmlns="http://www.w3.org/2000/svg">
<ellipse rx="795.272" ry="816.033" transform="matrix(0.562715 -0.826651 0.770309 0.637671 1076.11 2831.77)" fill="#183F88"/>
<ellipse rx="771.693" ry="805.544" transform="matrix(-0.447075 -0.894496 0.854535 -0.519394 3001.76 2960.07)" fill="#520EAD"/>
<ellipse cx="2961.39" cy="1920" rx="650" ry="468" fill="#174089"/>
<ellipse cx="1136.39" cy="1920" rx="650" ry="468" fill="#470D85"/>
<path d="M2677.12 1055.96C2855.66 781.627 2807.65 335.385 3296.27 278.083C3784.88 220.782 3775.38 436.889 3775.38 861.24C3775.38 1254.74 3390 1718.7 2944.89 1776C2344.56 1853.28 2203.72 1679.15 2256.23 1475.8C2308.74 1272.46 2498.58 1330.3 2677.12 1055.96Z" fill="#6215C4"/>
<path d="M2641.27 1161.7C2735.25 1017.14 2709.98 781.982 2967.18 751.787C3224.39 721.591 3219.38 835.472 3219.38 1059.09C3219.38 1266.45 3016.52 1510.94 2782.22 1541.14C2466.21 1581.86 2392.07 1490.1 2419.71 1382.94C2447.35 1275.79 2547.29 1306.27 2641.27 1161.7Z" fill="#6215C4"/>
<path d="M1562.36 1014.59C1357.86 700.297 1412.85 189.054 853.185 123.407C293.521 57.7585 304.406 305.344 304.406 791.507C304.406 1242.33 726.265 1753.78 1236.09 1819.43C1923.71 1907.97 2065.04 1708.46 2004.89 1475.5C1944.74 1242.54 1766.86 1328.89 1562.36 1014.59Z" fill="#224B98"/>
<circle cx="3246.39" cy="495" r="495" fill="#440D73"/>
<circle cx="981.392" cy="495" r="495" fill="#001C7D"/>
<circle cx="2045.39" cy="990" r="676" fill="#050036"/>
</svg>
