<svg width="4472" height="4768" viewBox="0 0 4472 4768" fill="none" xmlns="http://www.w3.org/2000/svg">
<g filter="url(#filter0_f)">
<ellipse rx="795.272" ry="816.033" transform="matrix(0.562715 -0.826651 0.770309 0.637671 1272.11 3331.77)" fill="#183F88"/>
<ellipse rx="771.693" ry="805.544" transform="matrix(-0.447075 -0.894496 0.854535 -0.519394 3197.76 3460.07)" fill="#520EAD"/>
<ellipse cx="3157.39" cy="2420" rx="650" ry="468" fill="#174089"/>
<ellipse cx="1332.39" cy="2420" rx="650" ry="468" fill="#470D85"/>
<path d="M2873.12 1555.96C3051.66 1281.63 3003.65 835.385 3492.27 778.083C3980.88 720.782 3971.38 936.889 3971.38 1361.24C3971.38 1754.74 3586 2218.7 3140.89 2276C2540.56 2353.28 2399.72 2179.15 2452.23 1975.8C2504.74 1772.46 2694.58 1830.3 2873.12 1555.96Z" fill="#6215C4"/>
<path d="M2837.27 1661.7C2931.25 1517.14 2905.98 1281.98 3163.18 1251.79C3420.39 1221.59 3415.38 1335.47 3415.38 1559.09C3415.38 1766.45 3212.52 2010.94 2978.22 2041.14C2662.21 2081.86 2588.07 1990.1 2615.71 1882.94C2643.35 1775.79 2743.29 1806.27 2837.27 1661.7Z" fill="#6215C4"/>
<path d="M1758.36 1514.59C1553.86 1200.3 1608.85 689.054 1049.19 623.407C489.521 557.759 500.406 805.344 500.406 1291.51C500.406 1742.33 922.265 2253.78 1432.09 2319.43C2119.71 2407.97 2261.04 2208.46 2200.89 1975.5C2140.74 1742.54 1962.86 1828.89 1758.36 1514.59Z" fill="#224B98"/>
<circle cx="3442.39" cy="995" r="495" fill="#440D73"/>
<circle cx="1177.39" cy="995" r="495" fill="#001C7D"/>
<circle cx="2241.39" cy="1490" r="676" fill="#050036"/>
</g>
<defs>
<filter id="filter0_f" x="0.391113" y="0" width="4471" height="4767.36" filterUnits="userSpaceOnUse" color-interpolation-filters="sRGB">
<feFlood flood-opacity="0" result="BackgroundImageFix"/>
<feBlend mode="normal" in="SourceGraphic" in2="BackgroundImageFix" result="shape"/>
<feGaussianBlur stdDeviation="250" result="effect1_foregroundBlur"/>
</filter>
</defs>
</svg>
